<svg viewBox="0 0 64 64" fill="none" xmlns="http://www.w3.org/2000/svg">
<g clip-path="url(#clip0_475_16)">
<path d="M32 16C34.9333 16 37.3333 18.4 37.3333 21.3333C37.3333 24.2667 34.9333 26.6667 32 26.6667C29.0666 26.6667 26.6666 24.2667 26.6666 21.3333C26.6666 18.4 29.0666 16 32 16ZM32 40C39.2 40 47.4666 43.44 48 45.3333V48H16V45.36C16.5333 43.44 24.8 40 32 40ZM32 10.6667C26.1066 10.6667 21.3333 15.44 21.3333 21.3333C21.3333 27.2267 26.1066 32 32 32C37.8933 32 42.6666 27.2267 42.6666 21.3333C42.6666 15.44 37.8933 10.6667 32 10.6667ZM32 34.6667C24.88 34.6667 10.6666 38.24 10.6666 45.3333V53.3333H53.3333V45.3333C53.3333 38.24 39.12 34.6667 32 34.6667Z" fill="black"/>
</g>
<defs>
<clipPath id="clip0_475_16">
<rect width="64" height="64" fill="white"/>
</clipPath>
</defs>
</svg>
