<svg viewBox="0 0 47 47" fill="none" xmlns="http://www.w3.org/2000/svg">
<g clip-path="url(#clip0_518_96)">
<path d="M37.9097 6.17382C36.8333 5.06452 35.5451 4.18261 34.1216 3.58037C32.698 2.97813 31.168 2.66781 29.6223 2.66781C28.0766 2.66781 26.5467 2.97813 25.1231 3.58037C23.6996 4.18261 22.4114 5.06452 21.335 6.17382C20.2586 5.06452 18.9705 4.18261 17.5469 3.58037C16.1234 2.97813 14.5934 2.66781 13.0477 2.66781C11.502 2.66781 9.97205 2.97813 8.5485 3.58037C7.12495 4.18261 5.8368 5.06452 4.7604 6.17382C2.55704 8.43902 1.32428 11.4744 1.32428 14.6345C1.32428 17.7945 2.55704 20.8299 4.7604 23.0951L21.335 40.0031L37.9097 23.0818C40.109 20.8172 41.3393 17.7846 41.3393 14.6278C41.3393 11.471 40.109 8.4384 37.9097 6.17382V6.17382Z" stroke="black" stroke-width="4" stroke-linecap="round" stroke-linejoin="round"/>
<path d="M34.6694 14.6678C34.6694 13.2532 34.1075 11.8966 33.1072 10.8963C32.107 9.89601 30.7503 9.33406 29.3357 9.33406" stroke="black" stroke-width="4" stroke-linecap="round" stroke-linejoin="round"/>
</g>
<defs>
<clipPath id="clip0_518_96">
<rect width="42.67" height="42.67" fill="white"/>
</clipPath>
</defs>
</svg>
