<svg viewBox="0 0 180 90" fill="none" xmlns="http://www.w3.org/2000/svg">
<path d="M45 90C33.0653 90 21.6193 85.2589 13.1802 76.8198C4.74107 68.3807 8.2044e-06 56.9348 0 45C-8.20438e-06 33.0653 4.74104 21.6194 13.1802 13.1802C21.6193 4.74109 33.0652 1.69305e-05 44.9999 0L44.9999 9C35.4522 9.00001 26.2954 12.7929 19.5441 19.5442C12.7928 26.2955 8.99999 35.4522 9 45C9.00001 54.5478 12.7929 63.7045 19.5442 70.4559C26.2955 77.2072 35.4522 81 45 81L45 90Z" fill="black"/>
<path d="M135 90C146.935 90 158.381 85.2589 166.82 76.8198C175.259 68.3807 180 56.9348 180 45C180 33.0653 175.259 21.6194 166.82 13.1802C158.381 4.74109 146.935 1.69305e-05 135 0L135 9C144.548 9.00001 153.705 12.7929 160.456 19.5442C167.207 26.2955 171 35.4522 171 45C171 54.5478 167.207 63.7045 160.456 70.4559C153.705 77.2072 144.548 81 135 81L135 90Z" fill="black"/>
<rect x="45" y="41" width="90" height="9" fill="black"/>
</svg>
