<svg xmlns="http://www.w3.org/2000/svg" width="500" height="500" style="width:100%;height:100%;transform:translate3d(0,0,0);content-visibility:visible" viewBox="0 0 500 500"><defs><clipPath id="e"><path d="M0 0h500v500H0z"/></clipPath><clipPath id="m"><path d="M0 0h500v500H0z"/></clipPath><clipPath id="l"><path d="M0 0h500v500H0z"/></clipPath><clipPath id="k"><path d="M0 0h500v500H0z"/></clipPath><clipPath id="i"><path d="M0 0h500v500H0z"/></clipPath><clipPath id="h"><path d="M0 0h500v500H0z"/></clipPath><clipPath id="f"><path d="M0 0h500v500H0z"/></clipPath><filter id="a" width="100%" height="100%" x="0%" y="0%" filterUnits="objectBoundingBox"><feComponentTransfer in="SourceGraphic"><feFuncA tableValues="1.0 0.0" type="table"/></feComponentTransfer></filter><filter id="c" width="100%" height="100%" x="0%" y="0%" filterUnits="objectBoundingBox"><feComponentTransfer in="SourceGraphic"><feFuncA tableValues="1.0 0.0" type="table"/></feComponentTransfer></filter><path id="b" style="display:none"/><path id="d" style="display:none"/><mask id="j" mask-type="alpha"><g filter="url(#a)"><path fill="#fff" d="M0 0h500v500H0z" opacity="0"/><use xmlns:ns1="http://www.w3.org/1999/xlink" ns1:href="#b"/></g></mask><mask id="g" mask-type="alpha"><g filter="url(#c)"><path fill="#fff" d="M0 0h500v500H0z" opacity="0"/><use xmlns:ns2="http://www.w3.org/1999/xlink" ns2:href="#d"/></g></mask></defs><g clip-path="url(#e)"><g clip-path="url(#f)" opacity="0" style="display:block"><g mask="url(#g)" style="display:block"><path fill="#505050" d="M419.617 171.471 273.807 70.008c-14.248-9.915-33.37-9.915-47.618 0L80.38 171.471a41.697 41.697 0 0 0-17.851 34.203V395.81c0 22.976 18.685 41.66 41.66 41.66h41.348c34.452 0 62.49-28.037 62.49-62.49l-.021-83.361h83.965l.021 83.361c0 34.453 28.037 62.49 62.49 62.49h41.327c22.975 0 41.66-18.684 41.66-41.66V205.674a41.697 41.697 0 0 0-17.851-34.203z"/></g><path fill="none" class="primary design" style="display:none"/></g><g clip-path="url(#h)" opacity="0" style="display:block"><g class="primary design" opacity="1" style="display:block"><path fill="#505050" d="M252.723 84.48s.235.313.235-.098c3.948 0 7.969 1.119 11.775 3.673 5.988 4.018 142.891 101.016 142.891 101.016 2.184 1.296 8.539 6.516 8.539 16.457l-.019 189.511c0 11.332-8.999 19.923-19.741 19.923l-.057-.352"/><path fill="none" stroke="#505050" stroke-linecap="round" stroke-linejoin="round" stroke-width="41" d="M252.723 84.48s.235.313.235-.098c3.948 0 7.969 1.119 11.775 3.673 5.988 4.018 142.891 101.016 142.891 101.016 2.184 1.296 8.539 6.516 8.539 16.457l-.019 189.511c0 11.332-8.999 19.923-19.741 19.923l-.057-.352" opacity="1"/></g><path fill="#505050" d="m8.143-3.771-7-4.871a2.008 2.008 0 0 0-2.286 0l-7 4.871A2.002 2.002 0 0 0-9-2.129v9.128c0 1.103.897 2 2 2h1.985c1.654 0 3-1.346 3-3l-.001-4.002h4.031l.001 4.002c0 1.654 1.346 3 3 3H7c1.103 0 2-.897 2-2v-9.128c0-.654-.32-1.268-.857-1.642z" opacity="1" style="display:block" transform="translate(249.998 250.021) scale(20.83)"/></g><g clip-path="url(#i)" mask="url(#j)" style="display:block"><path fill="#505050" d="M419.617 171.471 273.807 70.008c-14.248-9.915-33.37-9.915-47.618 0L80.38 171.471a41.697 41.697 0 0 0-17.851 34.203V395.81c0 22.976 18.685 41.66 41.66 41.66h41.348c34.452 0 62.49-28.037 62.49-62.49l-.021-83.361h83.965l.021 83.361c0 34.453 28.037 62.49 62.49 62.49h41.327c22.975 0 41.66-18.684 41.66-41.66V205.674a41.697 41.697 0 0 0-17.851-34.203z"/></g><g clip-path="url(#k)" opacity="0" style="display:block"><path fill="none" class="primary design" style="display:none"/><path fill="#505050" d="m8.143-3.771-7-4.871a2.008 2.008 0 0 0-2.286 0l-7 4.871A2.002 2.002 0 0 0-9-2.129v9.128c0 1.103.897 2 2 2h1.985c1.654 0 3-1.346 3-3l-.001-4.002h4.031l.001 4.002c0 1.654 1.346 3 3 3H7c1.103 0 2-.897 2-2v-9.128c0-.654-.32-1.268-.857-1.642z" opacity="1" style="display:block" transform="translate(249.998 250.021) scale(20.83)"/></g><g clip-path="url(#l)" opacity="0" style="display:block"><g class="primary design" style="display:none"><path/><path fill="none"/></g><path fill="#505050" d="m8.143-3.771-7-4.871a2.008 2.008 0 0 0-2.286 0l-7 4.871A2.002 2.002 0 0 0-9-2.129v9.128c0 1.103.897 2 2 2h1.985c1.654 0 3-1.346 3-3l-.001-4.002h4.031l.001 4.002c0 1.654 1.346 3 3 3H7c1.103 0 2-.897 2-2v-9.128c0-.654-.32-1.268-.857-1.642z" opacity="1" style="display:block" transform="translate(249.998 250.021) scale(20.83)"/><path style="display:none"/></g><g clip-path="url(#m)" opacity="0" style="display:block"><path style="display:none"/></g><path style="display:none"/></g></svg>