<svg width="145" height="69" viewBox="0 0 145 69" fill="none" xmlns="http://www.w3.org/2000/svg">
<path d="M134.33 13.0517C133.735 12.1958 132.756 11.6823 131.735 11.6823H111.949V3.20943C111.949 1.45494 110.502 0 108.758 0H37.0611C35.3166 0 33.8699 1.45494 33.8699 3.20943V55.0738C33.8699 56.8283 35.3166 58.2832 37.0611 58.2832H46.0817C47.7412 64.103 53.1025 68.425 59.3999 68.425C65.6973 68.425 71.0586 64.1458 72.7181 58.2832H108.077C109.737 64.103 115.098 68.425 121.395 68.425C127.693 68.425 133.054 64.1458 134.713 58.2832H141.309C143.053 58.2832 144.5 56.8283 144.5 55.0738V28.6709C144.5 27.9862 144.287 27.3443 143.904 26.8308L134.33 13.0517ZM138.16 29.6123H123.863V18.144H130.118L138.16 29.6123ZM40.2524 6.46165H105.567V51.9072H73.0159C71.782 45.4455 66.1653 40.5672 59.3999 40.5672C52.6344 40.5672 46.9753 45.4455 45.7839 51.9072H40.2524V6.46165ZM59.3999 62.0062C55.2725 62.0062 51.9111 58.6256 51.9111 54.4747C51.9111 50.3238 55.2725 46.9433 59.3999 46.9433C63.5272 46.9433 66.8887 50.3238 66.8887 54.4747C66.8887 58.6256 63.5272 62.0062 59.3999 62.0062ZM121.438 62.0062C117.31 62.0062 113.949 58.6256 113.949 54.4747C113.949 50.3238 117.31 46.9433 121.438 46.9433C125.565 46.9433 128.927 50.3238 128.927 54.4747C128.927 58.6256 125.565 62.0062 121.438 62.0062ZM135.054 51.9072C133.82 45.4455 128.203 40.5672 121.438 40.5672C117.779 40.5672 114.417 42.0221 111.949 44.3757V18.144H117.438V32.8218C117.438 34.5762 118.885 36.0312 120.629 36.0312H138.203V51.9072H135.054Z" fill="black"/>
<path d="M3.19126 6.46183H25.9555C27.7001 6.46183 29.1468 5.00689 29.1468 3.2524C29.1468 1.49791 27.7001 0.0429688 25.9555 0.0429688H3.19126C1.4467 0.0429688 0 1.49791 0 3.2524C0 5.00689 1.4467 6.46183 3.19126 6.46183Z" fill="black"/>
<path d="M25.9555 11.7256H8.4249C6.68034 11.7256 5.23364 13.1805 5.23364 14.935C5.23364 16.6895 6.68034 18.1444 8.4249 18.1444H25.9555C27.7001 18.1444 29.1468 16.6895 29.1468 14.935C29.1468 13.1805 27.7426 11.7256 25.9555 11.7256Z" fill="black"/>
<path d="M25.9556 23.4072H14.8925C13.148 23.4072 11.7013 24.8622 11.7013 26.6167C11.7013 28.3711 13.148 29.8261 14.8925 29.8261H25.9556C27.7001 29.8261 29.1468 28.3711 29.1468 26.6167C29.1468 24.8622 27.7427 23.4072 25.9556 23.4072Z" fill="black"/>
<path d="M25.9556 35.0898H22.1261C20.3815 35.0898 18.9348 36.5448 18.9348 38.2993C18.9348 40.0538 20.3815 41.5087 22.1261 41.5087H25.9556C27.7001 41.5087 29.1468 40.0538 29.1468 38.2993C29.1468 36.5448 27.7427 35.0898 25.9556 35.0898Z" fill="black"/>
</svg>
