<svg width="77" height="69" viewBox="0 0 77 69" fill="none" xmlns="http://www.w3.org/2000/svg">
<path fill-rule="evenodd" clip-rule="evenodd" d="M76.7808 59.8806C76.7808 64.4755 73.0452 68.1987 68.4351 68.1987H8.34574C3.73555 68.1987 0 64.4755 0 59.8806V11.6354C0 7.96044 2.98944 4.98088 6.67659 4.98088H40.345L53.8634 0.0998006C54.7197 -0.211298 55.6677 0.229564 55.9799 1.07968L57.4037 4.98088H63.4276C67.1148 4.98088 70.1042 7.96044 70.1042 11.6354V14.9626C73.7913 14.9626 76.7808 17.9422 76.7808 21.6171V59.8806ZM6.67659 8.30814C4.83385 8.30814 3.3383 9.79874 3.3383 11.6354C3.3383 13.472 4.83385 14.9626 6.67659 14.9626H12.4268H12.7423C12.764 14.9543 12.7773 14.936 12.799 14.9277L31.1296 8.30814H6.67659ZM55.2121 8.60925L53.4394 3.74481H53.4378L50.0143 4.98088H50.0193L40.8157 8.30814H40.799L22.3733 14.9626H57.5288L55.2121 8.60925ZM66.7659 11.6354C66.7659 9.79874 65.2703 8.30814 63.4276 8.30814H58.6155L61.0424 14.9626H66.7659V11.6354ZM70.1042 18.2899H6.67659C5.45477 18.2899 4.32309 17.9389 3.3383 17.3666V59.8806C3.3383 62.6372 5.58163 64.8714 8.34574 64.8714H68.4351C71.2008 64.8714 73.4425 62.6372 73.4425 59.8806V48.2352H66.7659C63.0788 48.2352 60.0893 45.2556 60.0893 41.5807C60.0893 37.9057 63.0788 34.9262 66.7659 34.9262H73.4425V21.6171C73.4425 19.7805 71.9469 18.2899 70.1042 18.2899ZM73.4425 44.9079V38.2534H66.7659C64.9232 38.2534 63.4276 39.744 63.4276 41.5807C63.4276 43.4173 64.9232 44.9079 66.7659 44.9079H73.4425ZM66.7659 39.917H70.1042V43.2443H66.7659V39.917Z" fill="black"/>
</svg>
