<svg viewBox="0 0 1700 210" fill="none" xmlns="http://www.w3.org/2000/svg">
<line x1="1000" y1="102.339" x2="1700" y2="102.339" stroke="#ACDDDA" stroke-width="5"/>
<line y1="102.339" x2="700" y2="102.339" stroke="#ACDDDA" stroke-width="5"/>
<path d="M850 5C830.222 5 810.888 10.8649 794.443 21.853C777.998 32.8412 765.181 48.459 757.612 66.7316C750.043 85.0043 748.063 105.111 751.922 124.509C755.78 143.907 765.304 161.725 779.289 175.711C793.275 189.696 811.093 199.22 830.491 203.078C849.889 206.937 869.996 204.957 888.268 197.388C906.541 189.819 922.159 177.002 933.147 160.557C944.135 144.112 950 124.778 950 105C949.971 78.4871 939.426 53.0684 920.679 34.321C901.932 15.5736 876.513 5.02868 850 5V5ZM850 188.333C833.518 188.333 817.407 183.446 803.703 174.289C789.998 165.132 779.317 152.117 773.01 136.89C766.703 121.663 765.053 104.908 768.268 88.7425C771.483 72.5774 779.42 57.7288 791.074 46.0744C802.729 34.4201 817.577 26.4833 833.743 23.2679C849.908 20.0525 866.663 21.7027 881.89 28.01C897.118 34.3173 910.132 44.9984 919.289 58.7025C928.446 72.4066 933.333 88.5182 933.333 105C933.309 127.094 924.522 148.276 908.899 163.899C893.276 179.522 872.094 188.309 850 188.333Z" fill="#ACDDDA" stroke="#ACDDDA" stroke-width="10"/>
<path d="M885.775 74.1088L833.333 126.55L814.225 107.442C812.653 105.924 810.548 105.084 808.363 105.103C806.178 105.122 804.088 105.999 802.543 107.544C800.998 109.089 800.122 111.179 800.103 113.364C800.084 115.549 800.924 117.654 802.442 119.225L827.442 144.225C829.004 145.788 831.124 146.665 833.333 146.665C835.543 146.665 837.662 145.788 839.225 144.225L897.558 85.8921C899.076 84.3204 899.916 82.2154 899.897 80.0305C899.878 77.8455 899.002 75.7554 897.457 74.2103C895.912 72.6652 893.822 71.7888 891.637 71.7698C889.452 71.7509 887.347 72.5908 885.775 74.1088Z" fill="#ACDDDA" stroke="#ACDDDA"/>
</svg>
